REM DIRINDEX 1\2,1\3,1\4,1\5
REM DIRNAME cjc005,folder01,folder02,folder03,folder04
TITLE ""
FILE "P1Q_t_0482-0491.mp3" MP3
  TRACK 01 AUDIO
    TITLE "3:cjc005_2348"
    INDEX 01 00:00:00
  TRACK 02 AUDIO
    TITLE "0:"
    INDEX 01 00:01:01
  TRACK 03 AUDIO
    TITLE "4:cjc005_2349"
    INDEX 01 00:01:32
  TRACK 04 AUDIO
    TITLE "0:"
    INDEX 01 00:02:65
  TRACK 05 AUDIO
    TITLE "5:cjc005_2350"
    INDEX 01 00:03:12
  TRACK 06 AUDIO
    TITLE "0:"
    INDEX 01 00:07:25
  TRACK 07 AUDIO
    TITLE "3:cjc005_2351"
    INDEX 01 00:08:03
  TRACK 08 AUDIO
    TITLE "0:"
    INDEX 01 00:09:16
  TRACK 09 AUDIO
    TITLE "4:cjc005_2352"
    INDEX 01 00:09:45
  TRACK 10 AUDIO
    TITLE "0:"
    INDEX 01 00:11:07
  TRACK 11 AUDIO
    TITLE "5:cjc005_2353"
    INDEX 01 00:11:31
  TRACK 12 AUDIO
    TITLE "0:"
    INDEX 01 00:15:32
  TRACK 13 AUDIO
    TITLE "3:cjc005_2354"
    INDEX 01 00:16:08
  TRACK 14 AUDIO
    TITLE "0:"
    INDEX 01 00:17:25
  TRACK 15 AUDIO
    TITLE "4:cjc005_2355"
    INDEX 01 00:17:57
  TRACK 16 AUDIO
    TITLE "0:"
    INDEX 01 00:19:22
  TRACK 17 AUDIO
    TITLE "5:cjc005_2356"
    INDEX 01 00:19:46
  TRACK 18 AUDIO
    TITLE "0:"
    INDEX 01 00:23:14
  TRACK 19 AUDIO
    TITLE "3:cjc005_2357"
    INDEX 01 00:23:65
  TRACK 20 AUDIO
    TITLE "0:"
    INDEX 01 00:25:17
  TRACK 21 AUDIO
    TITLE "4:cjc005_2358"
    INDEX 01 00:25:37
  TRACK 22 AUDIO
    TITLE "0:"
    INDEX 01 00:26:40
  TRACK 23 AUDIO
    TITLE "5:cjc005_2359"
    INDEX 01 00:26:64
  TRACK 24 AUDIO
    TITLE "0:"
    INDEX 01 00:30:05
  TRACK 25 AUDIO
    TITLE "3:cjc005_2360"
    INDEX 01 00:30:57
  TRACK 26 AUDIO
    TITLE "0:"
    INDEX 01 00:31:67
  TRACK 27 AUDIO
    TITLE "4:cjc005_2361"
    INDEX 01 00:32:15
  TRACK 28 AUDIO
    TITLE "0:"
    INDEX 01 00:33:32
  TRACK 29 AUDIO
    TITLE "5:cjc005_2362"
    INDEX 01 00:33:60
  TRACK 30 AUDIO
    TITLE "0:"
    INDEX 01 00:37:32
  TRACK 31 AUDIO
    TITLE "3:cjc005_2363"
    INDEX 01 00:38:08
  TRACK 32 AUDIO
    TITLE "0:"
    INDEX 01 00:39:29
  TRACK 33 AUDIO
    TITLE "4:cjc005_2364"
    INDEX 01 00:39:58
  TRACK 34 AUDIO
    TITLE "0:"
    INDEX 01 00:41:08
  TRACK 35 AUDIO
    TITLE "5:cjc005_2365"
    INDEX 01 00:41:36
  TRACK 36 AUDIO
    TITLE "0:"
    INDEX 01 00:45:47
  TRACK 37 AUDIO
    TITLE "3:cjc005_2366"
    INDEX 01 00:46:25
  TRACK 38 AUDIO
    TITLE "0:"
    INDEX 01 00:47:28
  TRACK 39 AUDIO
    TITLE "4:cjc005_2367"
    INDEX 01 00:47:58
  TRACK 40 AUDIO
    TITLE "0:"
    INDEX 01 00:49:16
  TRACK 41 AUDIO
    TITLE "5:cjc005_2368"
    INDEX 01 00:49:41
  TRACK 42 AUDIO
    TITLE "0:"
    INDEX 01 00:54:07
  TRACK 43 AUDIO
    TITLE "3:cjc005_2369"
    INDEX 01 00:54:64
  TRACK 44 AUDIO
    TITLE "0:"
    INDEX 01 00:56:10
  TRACK 45 AUDIO
    TITLE "4:cjc005_2370"
    INDEX 01 00:56:41
  TRACK 46 AUDIO
    TITLE "0:"
    INDEX 01 00:57:64
  TRACK 47 AUDIO
    TITLE "5:cjc005_2371"
    INDEX 01 00:58:05
  TRACK 48 AUDIO
    TITLE "0:"
    INDEX 01 01:03:16
  TRACK 49 AUDIO
    TITLE "3:cjc005_2372"
    INDEX 01 01:03:65
  TRACK 50 AUDIO
    TITLE "0:"
    INDEX 01 01:04:70
  TRACK 51 AUDIO
    TITLE "4:cjc005_2373"
    INDEX 01 01:05:19
  TRACK 52 AUDIO
    TITLE "0:"
    INDEX 01 01:06:55
  TRACK 53 AUDIO
    TITLE "5:cjc005_2374"
    INDEX 01 01:07:04
  TRACK 54 AUDIO
    TITLE "0:"
    INDEX 01 01:10:61
  TRACK 55 AUDIO
    TITLE "3:cjc005_2375"
    INDEX 01 01:11:39
  TRACK 56 AUDIO
    TITLE "0:"
    INDEX 01 01:12:44
  TRACK 57 AUDIO
    TITLE "4:cjc005_2376"
    INDEX 01 01:12:70
  TRACK 58 AUDIO
    TITLE "0:"
    INDEX 01 01:14:14
  TRACK 59 AUDIO
    TITLE "5:cjc005_2377"
    INDEX 01 01:14:41
  TRACK 60 AUDIO
    TITLE "0:"
    INDEX 01 01:18:25
